<?xml version="1.0" encoding="utf-8"?>
<!-- Generator: Adobe Illustrator 16.0.0, SVG Export Plug-In . SVG Version: 6.00 Build 0)  -->
<!DOCTYPE svg PUBLIC "-//W3C//DTD SVG 1.0//EN" "http://www.w3.org/TR/2001/REC-SVG-20010904/DTD/svg10.dtd">
<svg version="1.0" id="Layer_1" xmlns="http://www.w3.org/2000/svg" xmlns:xlink="http://www.w3.org/1999/xlink" x="0px" y="0px"
	 width="197.34px" height="38.81px" viewBox="0 0 197.34 38.81" enable-background="new 0 0 197.34 38.81" xml:space="preserve">
<path fill-rule="evenodd" clip-rule="evenodd" fill="#1B1918" d="M158.887,30.551h-4.273V17.73c0-1.613-0.371-2.699-0.859-3.254
	s-1.477-1.02-2.641-1.02l-16.367,0.004c-3.711,0-5.77,2.629-5.77,6.406c0,4.004,2.348,6.402,5.902,6.41h15.461v4.27h-16.063
	c-5.836-0.629-9.57-3.563-9.57-10.688c0-7.578,4-10.676,10.266-10.676h15.742c1.023,0.051,2.375,0.121,4.051,0.371
	c2.746,0.809,4.121,3.23,4.121,7.27V30.551z"/>
<path fill-rule="evenodd" clip-rule="evenodd" fill="#1B1918" d="M197.34,24.02c0,3.809-2.859,6.523-6.285,6.531H163.16v-4.273
	h27.457c1.586,0,2.449-0.875,2.449-2.137c0-1.313-0.789-2.129-2.375-2.129l-21.176-0.008c-3.434,0-6.355-2.383-6.355-6.309
	c0-3.824,2.938-6.504,6.355-6.508h23.551l4.273,4.27h-27.195c-1.582,0-2.375,0.926-2.375,2.238c0,1.262,0.875,2.035,2.457,2.035
	h20.91C194.547,17.73,197.34,20.207,197.34,24.02z"/>
<path fill-rule="evenodd" clip-rule="evenodd" fill="#1B1918" d="M111.887,13.488v8.488c0,2.363,1.211,4.273,4.273,4.273
	l4.273,0.027v4.301l-4.273-0.027c-5.246,0-8.547-3.055-8.547-8.574v-8.488h-4.27V9.188h4.27V0.641h4.273v8.547h8.547v4.27
	L111.887,13.488z"/>
<polygon fill-rule="evenodd" clip-rule="evenodd" fill="#1B1918" points="39.254,4.914 43.523,0.641 43.523,9.188 39.254,13.457 "/>
<path fill-rule="evenodd" clip-rule="evenodd" fill="#1B1918" d="M191.324,34.516H197v1.043h-1.906v3.176h-1.867v-3.176h-1.902
	V34.516z M187.633,34.516h1.871v4.219h-1.871V34.516z M178.672,34.516h2.453l0.949,2.566l0.945-2.566h2.445v4.219h-1.523v-3.219
	l-1.184,3.219h-1.379l-1.18-3.219v3.219h-1.527V34.516z M169.801,34.516h2.457l0.945,2.566l0.945-2.566h2.449v4.219h-1.527v-3.219
	l-1.184,3.219h-1.379l-1.18-3.219v3.219h-1.527V34.516z M163.52,36.633c0,0.426,0.113,0.73,0.34,0.918
	c0.227,0.184,0.535,0.277,0.926,0.277c0.398,0,0.711-0.09,0.93-0.273c0.219-0.18,0.332-0.508,0.332-0.98
	c0-0.398-0.117-0.688-0.348-0.871c-0.227-0.18-0.539-0.273-0.934-0.273c-0.375,0-0.676,0.094-0.906,0.281
	C163.633,35.895,163.52,36.203,163.52,36.633z M161.652,36.625c0-0.688,0.273-1.223,0.824-1.605
	c0.551-0.387,1.313-0.574,2.293-0.574c1.008,0,1.781,0.188,2.328,0.563c0.539,0.379,0.813,0.906,0.813,1.586
	c0,0.492-0.117,0.895-0.355,1.211s-0.582,0.559-1.031,0.734c-0.449,0.18-1.008,0.266-1.68,0.266c-0.68,0-1.242-0.078-1.691-0.227
	c-0.445-0.152-0.805-0.395-1.086-0.723C161.789,37.531,161.652,37.117,161.652,36.625z M158.441,37.008l1.633,0.348
	c-0.109,0.32-0.281,0.586-0.516,0.801c-0.238,0.215-0.531,0.379-0.883,0.488c-0.348,0.109-0.797,0.164-1.336,0.164
	c-0.656,0-1.195-0.066-1.609-0.199c-0.414-0.137-0.777-0.371-1.078-0.707s-0.453-0.762-0.453-1.285c0-0.699,0.266-1.238,0.797-1.613
	s1.285-0.559,2.258-0.559c0.762,0,1.359,0.105,1.793,0.32c0.438,0.215,0.762,0.543,0.973,0.988l-1.648,0.258
	c-0.059-0.129-0.121-0.223-0.184-0.281c-0.102-0.102-0.23-0.176-0.383-0.23s-0.32-0.082-0.508-0.082
	c-0.422,0-0.746,0.121-0.969,0.355c-0.172,0.18-0.258,0.453-0.258,0.832c0,0.469,0.102,0.789,0.305,0.965
	c0.203,0.172,0.488,0.258,0.855,0.258c0.359,0,0.629-0.07,0.813-0.211C158.227,37.48,158.355,37.277,158.441,37.008z
	 M145.438,36.965c-0.23,0.113-0.383,0.211-0.461,0.293c-0.074,0.078-0.113,0.164-0.113,0.254c0,0.141,0.09,0.266,0.262,0.375
	s0.398,0.164,0.676,0.164c0.297,0,0.633-0.082,1.008-0.246C146.453,37.613,145.996,37.336,145.438,36.965z M146.035,35.941
	c0.215-0.082,0.383-0.172,0.5-0.27c0.121-0.094,0.18-0.188,0.18-0.273c0-0.09-0.051-0.168-0.148-0.23s-0.234-0.094-0.406-0.094
	s-0.313,0.035-0.418,0.105s-0.16,0.152-0.16,0.246C145.582,35.543,145.73,35.715,146.035,35.941z M147.961,36.68l1.313,0.207
	c-0.07,0.168-0.137,0.305-0.199,0.406s-0.152,0.219-0.266,0.355l0.629,0.305c0.078,0.035,0.176,0.074,0.297,0.125l-0.902,0.723
	c-0.164-0.059-0.336-0.133-0.512-0.211c-0.176-0.082-0.336-0.152-0.477-0.207c-0.293,0.133-0.582,0.23-0.875,0.293
	c-0.402,0.082-0.859,0.125-1.375,0.125c-0.805,0-1.406-0.117-1.797-0.352c-0.391-0.23-0.59-0.516-0.59-0.852
	c0-0.238,0.117-0.465,0.348-0.68s0.609-0.395,1.133-0.543c-0.219-0.184-0.371-0.348-0.453-0.484s-0.125-0.277-0.125-0.418
	c0-0.297,0.164-0.547,0.492-0.738c0.328-0.195,0.82-0.289,1.488-0.289c0.676,0,1.176,0.09,1.496,0.273
	c0.316,0.184,0.477,0.406,0.477,0.664c0,0.141-0.051,0.281-0.148,0.414s-0.211,0.238-0.352,0.32
	c-0.137,0.082-0.383,0.207-0.734,0.367c0.293,0.207,0.598,0.398,0.918,0.574C147.828,36.938,147.902,36.813,147.961,36.68z
	 M133.379,34.516h5v0.898h-3.129v0.672h2.902v0.859h-2.902v0.832h3.223v0.957h-5.094V34.516z M127.676,36.223h0.789
	c0.086,0,0.25-0.02,0.492-0.055c0.125-0.02,0.227-0.063,0.305-0.133s0.117-0.152,0.117-0.246c0-0.137-0.063-0.238-0.188-0.313
	c-0.121-0.074-0.355-0.109-0.695-0.109h-0.82V36.223z M125.801,38.734v-4.219h3.113c0.574,0,1.016,0.035,1.32,0.102
	c0.305,0.07,0.551,0.199,0.738,0.387s0.281,0.414,0.281,0.68c0,0.238-0.07,0.438-0.215,0.609c-0.145,0.168-0.34,0.305-0.59,0.41
	c-0.16,0.07-0.379,0.125-0.652,0.168c0.219,0.051,0.383,0.105,0.484,0.156c0.066,0.035,0.168,0.109,0.297,0.219
	c0.133,0.117,0.219,0.203,0.262,0.266l0.906,1.223h-2.113l-0.996-1.293c-0.125-0.164-0.238-0.273-0.34-0.324
	c-0.133-0.063-0.285-0.098-0.457-0.098h-0.164v1.715H125.801z M121.633,37.125l-0.668-1.516l-0.664,1.516H121.633z M122.027,38.035
	h-2.129l-0.293,0.699h-1.906l2.27-4.219h2.035l2.273,4.219h-1.957L122.027,38.035z M110.383,34.516h1.867v1.477h2.039v-1.477h1.875
	v4.219h-1.875v-1.707h-2.039v1.707h-1.867V34.516z M103.051,37.336l1.777-0.078c0.035,0.203,0.113,0.355,0.234,0.461
	c0.191,0.172,0.465,0.258,0.824,0.258c0.266,0,0.469-0.043,0.613-0.133c0.145-0.086,0.219-0.188,0.219-0.301
	c0-0.109-0.07-0.207-0.207-0.297c-0.137-0.086-0.457-0.168-0.957-0.242c-0.82-0.129-1.402-0.301-1.75-0.512
	c-0.352-0.215-0.527-0.484-0.527-0.816c0-0.215,0.09-0.422,0.27-0.613s0.449-0.344,0.813-0.453c0.359-0.109,0.855-0.164,1.484-0.164
	c0.773,0,1.359,0.098,1.766,0.297c0.406,0.203,0.645,0.52,0.723,0.957l-1.758,0.074c-0.047-0.191-0.145-0.328-0.297-0.414
	c-0.148-0.086-0.355-0.129-0.617-0.129c-0.219,0-0.383,0.031-0.492,0.094c-0.109,0.066-0.164,0.145-0.164,0.234
	c0,0.066,0.043,0.129,0.133,0.184s0.297,0.105,0.629,0.152c0.816,0.125,1.398,0.25,1.754,0.375c0.352,0.125,0.609,0.281,0.77,0.465
	c0.16,0.188,0.242,0.395,0.242,0.625c0,0.27-0.109,0.52-0.32,0.75c-0.215,0.227-0.516,0.398-0.898,0.52
	c-0.387,0.117-0.871,0.176-1.457,0.176c-1.027,0-1.738-0.137-2.133-0.414C103.324,38.113,103.102,37.762,103.051,37.336z"/>
<path fill-rule="evenodd" clip-rule="evenodd" fill="#1B1918" d="M81.98,15.594c0,4.176-2.559,6.418-6.043,6.418l-17.727-0.008
	c-1.27,0-1.832-0.48-1.832-1.996c0-1.512,0.656-2.27,1.969-2.27l17.07,0.008c1.488,0,2.414-0.449,2.414-1.961
	c0-1.566-0.77-2.328-2.301-2.328H57.543c-3.32,0-5.473,2.363-5.473,6.41c0,4.027,2.012,6.406,5.32,6.41h24.59l4.27,4.273H56.813
	c-4.742,0.016-9.016-3.316-9.016-10.684s4.273-10.68,8.992-10.68h19.168C79.223,9.188,81.98,11.422,81.98,15.594z"/>
<path fill-rule="evenodd" clip-rule="evenodd" fill="#1B1918" d="M94.797,13.488v8.488c0,2.363,1.211,4.273,4.273,4.273l4.273,0.027
	v4.301l-4.273-0.027c-5.246,0-8.547-3.055-8.547-8.574v-8.488H86.25V9.188h4.273V0.641h4.273v8.547h8.547v4.27L94.797,13.488z"/>
<path fill-rule="evenodd" clip-rule="evenodd" fill="#1B1918" d="M0.797,13.488L5.07,9.188v12.816c0,1.613,0.375,2.699,0.863,3.254
	s1.473,1.02,2.637,1.02c5.617-0.004,11.238,0,16.855,0c3.313,0,5.324-2.398,5.324-6.426c0-4.051-2.16-6.395-5.48-6.395h-7.383v-4.27
	h8.141c4.723,0,8.992,3.297,8.992,10.664c0,7.363-4.273,10.715-9.016,10.699H8.973C7.945,30.5,6.598,30.43,4.918,30.18
	c-2.746-0.809-4.121-3.23-4.121-7.27V13.488z"/>
<polygon fill-rule="evenodd" clip-rule="evenodd" fill="#1B1918" points="39.254,17.762 43.523,13.488 43.523,30.578 39.254,30.578 
	"/>
<path fill-rule="evenodd" clip-rule="evenodd" fill="#1B9DD9" d="M81.176,14.953c0,4.176-2.555,6.418-6.039,6.418L57.41,21.363
	c-1.27,0-1.832-0.48-1.832-1.996s0.656-2.27,1.969-2.27l17.07,0.004c1.488,0,2.41-0.445,2.41-1.961c0-1.563-0.766-2.324-2.297-2.324
	H56.742c-3.32,0-5.473,2.363-5.473,6.41c0,4.027,2.012,6.406,5.32,6.41h24.586l4.273,4.27H56.012
	c-4.742,0.02-9.016-3.313-9.016-10.68S51.27,8.543,55.988,8.543h19.168C78.422,8.543,81.176,10.777,81.176,14.953z"/>
<path fill-rule="evenodd" clip-rule="evenodd" fill="#1B9DD9" d="M93.996,12.848v8.488c0,2.363,1.211,4.27,4.273,4.27l4.27,0.031
	v4.301l-4.27-0.031c-5.246,0-8.547-3.051-8.547-8.57v-8.488h-4.273V8.543h4.273V0h4.273v8.543h8.543v4.273L93.996,12.848z"/>
<path fill-rule="evenodd" clip-rule="evenodd" fill="#1B9DD9" d="M-0.004,12.848L4.27,8.543v12.82c0,1.613,0.371,2.699,0.859,3.254
	c0.492,0.555,1.477,1.02,2.641,1.02c5.617-0.004,11.238,0,16.855,0c3.309-0.004,5.32-2.398,5.32-6.426
	c0-4.051-2.156-6.395-5.477-6.395h-7.383V8.543h8.141c4.719,0,8.992,3.301,8.992,10.668c0,7.363-4.273,10.715-9.016,10.695H8.168
	c-1.023-0.051-2.375-0.117-4.051-0.371c-2.746-0.805-4.121-3.227-4.121-7.266V12.848z"/>
<polygon fill-rule="evenodd" clip-rule="evenodd" fill="#1B9DD9" points="38.449,17.121 42.723,12.848 42.723,29.938 38.449,29.938 
	"/>
<path fill-rule="evenodd" clip-rule="evenodd" fill="#E21F26" d="M158.086,29.906h-4.273V17.09c0-1.613-0.371-2.699-0.863-3.254
	c-0.488-0.555-1.473-1.02-2.637-1.02l-16.367,0.004c-3.711,0-5.77,2.629-5.77,6.406c0,4.004,2.348,6.402,5.902,6.41l15.461-0.004
	v4.273h-16.066c-5.832-0.629-9.57-3.563-9.57-10.691c0-7.574,4-10.672,10.27-10.672h15.742c1.023,0.051,2.375,0.121,4.051,0.371
	c2.746,0.809,4.121,3.23,4.121,7.266V29.906z"/>
<path fill-rule="evenodd" clip-rule="evenodd" fill="#E21F26" d="M196.539,23.379c0,3.805-2.859,6.523-6.285,6.527h-27.895v-4.27
	h27.457c1.582,0,2.449-0.875,2.449-2.137c0-1.313-0.793-2.129-2.375-2.129l-21.176-0.008c-3.434,0-6.355-2.387-6.355-6.309
	c0-3.824,2.938-6.504,6.355-6.512h23.551l4.273,4.273h-27.195c-1.582,0-2.375,0.926-2.375,2.238c0,1.262,0.871,2.031,2.457,2.031
	h20.91C193.746,17.086,196.539,19.566,196.539,23.379z"/>
<path fill-rule="evenodd" clip-rule="evenodd" fill="#E21F26" d="M111.086,12.848v8.488c0,2.363,1.211,4.27,4.273,4.27l4.273,0.031
	v4.301l-4.273-0.031c-5.246,0-8.547-3.051-8.547-8.57v-8.488h-4.273V8.543h4.273V0h4.273v8.543h8.547v4.273L111.086,12.848z"/>
<polygon fill-rule="evenodd" clip-rule="evenodd" fill="#E21F26" points="38.449,4.273 42.723,0 42.723,8.543 38.449,12.816 "/>
<path fill-rule="evenodd" clip-rule="evenodd" fill="#1B9DD9" d="M190.855,34.234h5.676v1.043h-1.902v3.176h-1.867v-3.176h-1.906
	V34.234z M187.168,34.234h1.871v4.219h-1.871V34.234z M178.203,34.234h2.457l0.945,2.566l0.945-2.566h2.445v4.219h-1.523v-3.215
	l-1.184,3.215h-1.379l-1.18-3.215v3.215h-1.527V34.234z M169.332,34.234h2.457l0.949,2.566l0.941-2.566h2.449v4.219h-1.527v-3.215
	l-1.18,3.215h-1.383l-1.176-3.215v3.215h-1.531V34.234z M163.051,36.352c0,0.426,0.113,0.734,0.34,0.918
	c0.227,0.188,0.535,0.281,0.926,0.281c0.398,0,0.711-0.094,0.93-0.273c0.219-0.184,0.332-0.512,0.332-0.98
	c0-0.398-0.117-0.688-0.344-0.871c-0.23-0.184-0.543-0.273-0.934-0.273c-0.379,0-0.68,0.09-0.906,0.277
	C163.164,35.613,163.051,35.922,163.051,36.352z M161.184,36.348c0-0.691,0.277-1.227,0.824-1.609
	c0.551-0.383,1.316-0.574,2.297-0.574c1.004,0,1.777,0.188,2.324,0.566c0.543,0.375,0.816,0.902,0.816,1.582
	c0,0.492-0.121,0.898-0.359,1.211c-0.238,0.316-0.578,0.563-1.027,0.738c-0.453,0.176-1.012,0.262-1.68,0.262
	c-0.684,0-1.246-0.074-1.691-0.227c-0.449-0.152-0.809-0.391-1.086-0.719S161.184,36.84,161.184,36.348z M157.973,36.73l1.637,0.344
	c-0.109,0.32-0.285,0.586-0.52,0.805c-0.238,0.215-0.531,0.375-0.883,0.484c-0.348,0.109-0.793,0.164-1.336,0.164
	c-0.656,0-1.191-0.066-1.609-0.199c-0.414-0.133-0.773-0.367-1.078-0.703c-0.301-0.336-0.453-0.766-0.453-1.289
	c0-0.699,0.266-1.234,0.797-1.609c0.535-0.375,1.285-0.563,2.258-0.563c0.762,0,1.359,0.105,1.797,0.32
	c0.434,0.215,0.758,0.547,0.969,0.992l-1.648,0.254c-0.059-0.129-0.117-0.223-0.18-0.281c-0.105-0.102-0.234-0.176-0.383-0.23
	c-0.152-0.055-0.324-0.082-0.508-0.082c-0.422,0-0.75,0.121-0.973,0.359c-0.172,0.176-0.258,0.453-0.258,0.832
	c0,0.469,0.102,0.789,0.305,0.961c0.207,0.176,0.492,0.262,0.859,0.262c0.355,0,0.625-0.07,0.809-0.211
	S157.891,36.996,157.973,36.73z M144.969,36.688c-0.23,0.113-0.383,0.207-0.457,0.289c-0.078,0.082-0.113,0.168-0.113,0.258
	c0,0.137,0.086,0.262,0.258,0.371s0.398,0.164,0.676,0.164c0.301,0,0.637-0.078,1.012-0.242
	C145.984,37.336,145.527,37.055,144.969,36.688z M145.566,35.66c0.219-0.082,0.383-0.172,0.504-0.266
	c0.117-0.098,0.176-0.191,0.176-0.277c0-0.09-0.051-0.164-0.148-0.227s-0.234-0.094-0.406-0.094s-0.309,0.035-0.418,0.102
	c-0.105,0.07-0.16,0.152-0.16,0.246C145.113,35.262,145.266,35.438,145.566,35.66z M147.496,36.402l1.309,0.203
	c-0.066,0.168-0.133,0.305-0.195,0.406c-0.066,0.102-0.152,0.223-0.27,0.359l0.633,0.301c0.074,0.035,0.176,0.078,0.293,0.125
	l-0.902,0.723c-0.164-0.059-0.336-0.129-0.512-0.211s-0.336-0.148-0.477-0.207c-0.289,0.133-0.582,0.23-0.871,0.293
	c-0.406,0.086-0.863,0.125-1.379,0.125c-0.805,0-1.402-0.113-1.797-0.348c-0.391-0.234-0.59-0.52-0.59-0.852
	c0-0.242,0.117-0.469,0.348-0.68c0.23-0.215,0.609-0.395,1.133-0.543c-0.219-0.188-0.371-0.348-0.453-0.484
	c-0.082-0.141-0.121-0.277-0.121-0.418c0-0.301,0.16-0.547,0.488-0.742s0.82-0.289,1.488-0.289c0.68,0,1.176,0.09,1.496,0.273
	c0.316,0.188,0.477,0.406,0.477,0.664c0,0.145-0.047,0.281-0.145,0.414s-0.215,0.238-0.355,0.32
	c-0.137,0.086-0.383,0.207-0.734,0.371c0.293,0.203,0.598,0.395,0.918,0.57C147.363,36.66,147.434,36.535,147.496,36.402z
	 M132.91,34.234h5.004v0.902h-3.133v0.668h2.906v0.863h-2.906v0.828h3.223v0.957h-5.094V34.234z M127.207,35.945h0.789
	c0.086,0,0.25-0.02,0.496-0.059c0.121-0.016,0.223-0.063,0.301-0.133s0.117-0.152,0.117-0.242c0-0.137-0.063-0.242-0.184-0.316
	c-0.125-0.074-0.355-0.109-0.699-0.109h-0.82V35.945z M125.332,38.453v-4.219h3.113c0.578,0,1.02,0.035,1.32,0.105
	c0.309,0.066,0.555,0.195,0.742,0.383c0.184,0.188,0.277,0.414,0.277,0.684c0,0.234-0.07,0.434-0.215,0.605
	c-0.141,0.168-0.34,0.309-0.586,0.414c-0.164,0.066-0.379,0.121-0.656,0.164c0.223,0.055,0.383,0.105,0.484,0.156
	c0.07,0.035,0.168,0.109,0.301,0.223c0.129,0.113,0.219,0.199,0.262,0.262l0.902,1.223h-2.109l-1-1.289
	c-0.125-0.168-0.238-0.277-0.336-0.324c-0.137-0.066-0.289-0.098-0.457-0.098h-0.168v1.711H125.332z M121.168,36.844l-0.668-1.516
	l-0.664,1.516H121.168z M121.559,37.758h-2.129l-0.293,0.695h-1.906l2.27-4.219h2.035l2.273,4.219h-1.953L121.559,37.758z
	 M109.914,34.234h1.867v1.477h2.039v-1.477h1.875v4.219h-1.875v-1.707h-2.039v1.707h-1.867V34.234z M102.582,37.059l1.777-0.078
	c0.039,0.199,0.117,0.355,0.234,0.461c0.191,0.168,0.465,0.254,0.824,0.254c0.266,0,0.473-0.043,0.617-0.129
	c0.141-0.09,0.215-0.191,0.215-0.305c0-0.109-0.07-0.207-0.207-0.293s-0.457-0.168-0.957-0.246c-0.816-0.129-1.402-0.297-1.75-0.512
	c-0.352-0.211-0.527-0.484-0.527-0.813c0-0.219,0.09-0.422,0.27-0.617c0.18-0.191,0.449-0.344,0.813-0.453
	c0.359-0.109,0.855-0.164,1.484-0.164c0.773,0,1.363,0.102,1.766,0.301c0.406,0.199,0.648,0.52,0.727,0.957l-1.762,0.07
	c-0.047-0.191-0.145-0.328-0.297-0.414c-0.148-0.086-0.355-0.129-0.617-0.129c-0.219,0-0.383,0.031-0.492,0.098
	c-0.109,0.063-0.164,0.141-0.164,0.234c0,0.066,0.047,0.125,0.137,0.18c0.086,0.055,0.297,0.105,0.625,0.156
	c0.816,0.121,1.402,0.246,1.754,0.371s0.609,0.281,0.77,0.469c0.16,0.184,0.242,0.395,0.242,0.625c0,0.27-0.105,0.52-0.32,0.746
	c-0.215,0.23-0.516,0.402-0.898,0.52c-0.387,0.117-0.871,0.176-1.457,0.176c-1.023,0-1.738-0.137-2.133-0.414
	C102.859,37.836,102.633,37.484,102.582,37.059z"/>
</svg>
