<?xml version="1.0" encoding="utf-8"?>
<!-- Generator: Adobe Illustrator 16.0.0, SVG Export Plug-In . SVG Version: 6.00 Build 0)  -->
<!DOCTYPE svg PUBLIC "-//W3C//DTD SVG 1.0//EN" "http://www.w3.org/TR/2001/REC-SVG-20010904/DTD/svg10.dtd">
<svg version="1.0" id="Layer_1" xmlns="http://www.w3.org/2000/svg" xmlns:xlink="http://www.w3.org/1999/xlink" x="0px" y="0px"
	 width="197.34px" height="38.81px" viewBox="0 0 197.34 38.81" enable-background="new 0 0 197.34 38.81" xml:space="preserve">
<path fill-rule="evenodd" clip-rule="evenodd" fill="#1B1918" d="M158.887,30.552h-4.273V17.735c0-1.613-0.371-2.699-0.859-3.254
	s-1.477-1.02-2.641-1.02l-16.367,0.004c-3.711,0-5.77,2.629-5.77,6.406c0,4.004,2.348,6.402,5.902,6.406h15.465v4.273h-16.066
	c-5.836-0.633-9.57-3.563-9.57-10.691c0-7.574,4-10.672,10.266-10.672h15.742c1.023,0.051,2.375,0.121,4.051,0.371
	c2.746,0.809,4.121,3.23,4.121,7.266V30.552z"/>
<path fill-rule="evenodd" clip-rule="evenodd" fill="#1B1918" d="M197.34,24.024c0,3.805-2.859,6.523-6.285,6.527H163.16v-4.273
	l27.457,0.004c1.586,0,2.453-0.875,2.453-2.137c0-1.313-0.793-2.129-2.375-2.129l-21.18-0.008c-3.434,0-6.355-2.387-6.355-6.309
	c0-3.824,2.938-6.508,6.355-6.512h23.555l4.27,4.273h-27.195c-1.582,0-2.375,0.926-2.375,2.238c0,1.262,0.875,2.031,2.457,2.031
	h20.91C194.547,17.731,197.34,20.212,197.34,24.024z"/>
<path fill-rule="evenodd" clip-rule="evenodd" fill="#1B1918" d="M111.887,13.493v8.488c0,2.363,1.211,4.27,4.273,4.27l4.273,0.031
	v4.301l-4.273-0.031c-5.246,0-8.547-3.055-8.547-8.57v-8.488h-4.27V9.188h4.273l-0.004-8.543h4.273v8.543h8.547v4.273
	L111.887,13.493z"/>
<polygon fill-rule="evenodd" clip-rule="evenodd" fill="#1B1918" points="39.254,4.915 43.523,0.646 43.523,9.188 39.254,13.462 "/>
<path fill-rule="evenodd" clip-rule="evenodd" fill="#1B1918" d="M191.328,34.521h5.676v1.039h-1.906v3.176h-1.867V35.56h-1.902
	V34.521z M187.637,34.521h1.871v4.215h-1.871V34.521z M178.676,34.521h2.453l0.949,2.563l0.945-2.563h2.445v4.215h-1.523v-3.215
	l-1.184,3.215h-1.379l-1.18-3.215v3.215h-1.527V34.521z M169.805,34.521h2.457l0.945,2.563l0.945-2.563h2.449v4.215h-1.527v-3.215
	l-1.184,3.215h-1.379l-1.18-3.215v3.215h-1.527V34.521z M163.523,36.638c0,0.426,0.109,0.73,0.336,0.918
	c0.23,0.184,0.539,0.277,0.926,0.277c0.402,0,0.715-0.09,0.934-0.273s0.328-0.508,0.328-0.98c0-0.398-0.113-0.688-0.344-0.871
	s-0.539-0.273-0.934-0.273c-0.375,0-0.676,0.09-0.906,0.277C163.637,35.899,163.523,36.208,163.523,36.638z M161.652,36.63
	c0-0.688,0.277-1.223,0.824-1.609c0.551-0.383,1.316-0.573,2.297-0.573c1.008,0,1.781,0.187,2.324,0.565
	c0.543,0.375,0.816,0.902,0.816,1.582c0,0.492-0.117,0.898-0.355,1.215c-0.238,0.313-0.582,0.559-1.031,0.734
	s-1.008,0.266-1.68,0.266c-0.68,0-1.242-0.078-1.691-0.227c-0.445-0.152-0.809-0.395-1.086-0.723S161.652,37.122,161.652,36.63z
	 M158.441,37.013l1.637,0.348c-0.109,0.316-0.281,0.587-0.52,0.801c-0.234,0.215-0.527,0.375-0.879,0.484
	c-0.352,0.113-0.797,0.164-1.336,0.164c-0.656,0-1.195-0.066-1.609-0.199c-0.418-0.133-0.777-0.367-1.078-0.703
	c-0.301-0.335-0.453-0.766-0.453-1.289c0-0.695,0.266-1.234,0.797-1.609s1.285-0.562,2.254-0.562c0.762,0,1.359,0.108,1.797,0.323
	s0.758,0.543,0.969,0.988l-1.648,0.258c-0.055-0.129-0.117-0.223-0.18-0.285c-0.105-0.098-0.23-0.176-0.383-0.23
	c-0.152-0.051-0.32-0.078-0.508-0.078c-0.422,0-0.746,0.117-0.973,0.355c-0.168,0.176-0.254,0.453-0.254,0.832
	c0,0.469,0.102,0.789,0.305,0.962c0.203,0.175,0.488,0.261,0.855,0.261c0.359,0,0.629-0.07,0.809-0.211
	C158.227,37.481,158.359,37.278,158.441,37.013z M145.438,36.97c-0.23,0.113-0.383,0.211-0.457,0.289
	c-0.074,0.082-0.113,0.168-0.113,0.258c0,0.141,0.086,0.266,0.258,0.375c0.176,0.109,0.398,0.164,0.676,0.164
	c0.301,0,0.637-0.082,1.012-0.246C146.453,37.618,145.996,37.337,145.438,36.97z M146.035,35.947
	c0.219-0.083,0.387-0.173,0.504-0.271s0.176-0.188,0.176-0.273c0-0.09-0.047-0.168-0.145-0.23c-0.102-0.063-0.238-0.094-0.41-0.094
	c-0.168,0-0.309,0.035-0.414,0.105c-0.109,0.066-0.16,0.148-0.16,0.242C145.586,35.548,145.734,35.72,146.035,35.947z
	 M147.965,36.685l1.313,0.203c-0.07,0.172-0.137,0.305-0.199,0.406s-0.152,0.223-0.266,0.359l0.629,0.305
	c0.078,0.031,0.176,0.074,0.297,0.121l-0.902,0.727c-0.164-0.063-0.336-0.133-0.512-0.211c-0.18-0.082-0.336-0.152-0.48-0.211
	c-0.289,0.137-0.582,0.234-0.871,0.293c-0.402,0.086-0.863,0.129-1.375,0.129c-0.809,0-1.406-0.117-1.797-0.352
	c-0.395-0.234-0.59-0.516-0.59-0.852c0-0.238,0.113-0.465,0.344-0.68s0.609-0.395,1.137-0.543c-0.223-0.188-0.375-0.348-0.453-0.484
	c-0.086-0.137-0.125-0.277-0.125-0.418c0-0.301,0.164-0.547,0.488-0.738c0.328-0.195,0.824-0.292,1.488-0.292
	c0.68,0,1.18,0.093,1.496,0.276c0.32,0.184,0.477,0.402,0.477,0.66c0,0.145-0.047,0.281-0.145,0.414s-0.215,0.242-0.352,0.324
	s-0.383,0.203-0.738,0.367c0.293,0.208,0.602,0.395,0.918,0.574C147.832,36.942,147.906,36.817,147.965,36.685z M133.379,34.521
	h5.004v0.898h-3.133v0.672h2.906v0.859h-2.906v0.832h3.223v0.953h-5.094V34.521z M127.68,36.228h0.785
	c0.086,0,0.25-0.02,0.496-0.059c0.121-0.016,0.223-0.063,0.301-0.133s0.117-0.152,0.117-0.242c0-0.137-0.059-0.242-0.184-0.313
	c-0.125-0.074-0.355-0.113-0.695-0.113h-0.82V36.228z M125.805,38.735v-4.215h3.109c0.578,0,1.02,0.031,1.324,0.102
	s0.551,0.195,0.738,0.383s0.277,0.414,0.277,0.684c0,0.234-0.07,0.438-0.211,0.605c-0.145,0.172-0.344,0.309-0.59,0.414
	c-0.16,0.066-0.379,0.125-0.656,0.168c0.223,0.051,0.383,0.102,0.488,0.156c0.066,0.031,0.164,0.105,0.297,0.219
	c0.129,0.113,0.219,0.199,0.262,0.262l0.902,1.223h-2.109l-1-1.288c-0.125-0.165-0.238-0.274-0.336-0.325
	c-0.133-0.066-0.289-0.098-0.457-0.098h-0.164v1.711H125.805z M121.637,37.126l-0.668-1.516l-0.664,1.516H121.637z M122.027,38.04
	h-2.129l-0.293,0.695h-1.906l2.27-4.215h2.035l2.273,4.215h-1.953L122.027,38.04z M110.383,34.521h1.867v1.473h2.039v-1.473h1.875
	v4.215h-1.875v-1.703h-2.039v1.703h-1.867V34.521z M103.051,37.341l1.777-0.078c0.035,0.203,0.117,0.355,0.234,0.461
	c0.191,0.172,0.465,0.254,0.824,0.254c0.266,0,0.469-0.043,0.617-0.129c0.141-0.086,0.215-0.188,0.215-0.305
	c0-0.109-0.07-0.207-0.207-0.293s-0.457-0.168-0.957-0.242c-0.82-0.129-1.402-0.301-1.75-0.512
	c-0.352-0.215-0.527-0.484-0.527-0.816c0-0.215,0.09-0.422,0.27-0.613s0.449-0.344,0.813-0.457c0.359-0.109,0.855-0.163,1.484-0.163
	c0.773,0,1.359,0.101,1.766,0.3c0.406,0.2,0.645,0.52,0.723,0.957l-1.758,0.07c-0.047-0.188-0.145-0.327-0.297-0.414
	c-0.148-0.086-0.355-0.129-0.617-0.129c-0.219,0-0.383,0.031-0.492,0.098c-0.109,0.063-0.164,0.141-0.164,0.234
	c0,0.066,0.043,0.125,0.137,0.18c0.086,0.059,0.297,0.109,0.625,0.156c0.816,0.121,1.398,0.246,1.754,0.375
	c0.352,0.125,0.609,0.277,0.77,0.465s0.242,0.395,0.242,0.625c0,0.27-0.109,0.52-0.32,0.746c-0.215,0.23-0.516,0.402-0.898,0.52
	c-0.387,0.121-0.871,0.18-1.457,0.18c-1.027,0-1.738-0.141-2.133-0.414C103.324,38.118,103.102,37.767,103.051,37.341z"/>
<path fill-rule="evenodd" clip-rule="evenodd" fill="#1B1918" d="M81.98,15.599c0,4.176-2.559,6.418-6.043,6.418l-17.726-0.008
	c-1.27,0-1.832-0.484-1.832-1.996c0-1.516,0.656-2.273,1.972-2.27l17.067,0.004c1.488,0,2.414-0.445,2.414-1.961
	c0-1.563-0.77-2.324-2.301-2.324H57.543c-3.321,0-5.473,2.36-5.473,6.41c0,4.027,2.012,6.402,5.32,6.406h24.59l4.27,4.273H56.813
	c-4.742,0.021-9.016-3.316-9.016-10.68c0-7.367,4.274-10.684,8.993-10.684h19.168C79.223,9.188,81.98,11.423,81.98,15.599z"/>
<path fill-rule="evenodd" clip-rule="evenodd" fill="#1B1918" d="M94.796,13.493v8.488c0,2.363,1.211,4.27,4.274,4.27l4.273,0.031
	v4.301l-4.273-0.031c-5.246,0-8.547-3.055-8.547-8.57v-8.488H86.25V9.188h4.273V0.646h4.273v8.543h8.547v4.273L94.796,13.493z"/>
<path fill-rule="evenodd" clip-rule="evenodd" fill="#1B1918" d="M0.796,13.493L5.07,9.188v12.82c0,1.613,0.375,2.699,0.863,3.254
	c0.488,0.555,1.473,1.02,2.637,1.02c5.617-0.004,11.238,0,16.855,0c3.313-0.004,5.325-2.398,5.325-6.43
	c0-4.047-2.161-6.391-5.481-6.391H17.89V9.188h8.137c4.723,0,8.992,3.301,8.992,10.664c0,7.367-4.273,10.72-9.015,10.699H8.972
	c-1.027-0.051-2.375-0.117-4.054-0.371c-2.747-0.805-4.122-3.227-4.122-7.266V13.493z"/>
<polygon fill-rule="evenodd" clip-rule="evenodd" fill="#1B1918" points="39.254,17.767 43.523,13.493 43.523,30.583 39.254,30.583 
	"/>
<path fill-rule="evenodd" clip-rule="evenodd" fill="#FFFFFF" d="M81.175,14.958c0,4.172-2.554,6.418-6.039,6.418l-17.726-0.008
	c-1.271,0-1.832-0.484-1.832-1.996c0-1.516,0.656-2.273,1.968-2.273l17.071,0.008c1.488,0,2.41-0.445,2.41-1.961
	c0-1.563-0.766-2.323-2.297-2.323H56.743c-3.321,0-5.473,2.358-5.473,6.409c0,4.027,2.012,6.402,5.32,6.406h24.586l4.274,4.273
	H56.011c-4.742,0.02-9.015-3.316-9.015-10.68c0-7.367,4.273-10.684,8.992-10.684h19.168C78.421,8.548,81.175,10.782,81.175,14.958z"
	/>
<path fill-rule="evenodd" clip-rule="evenodd" fill="#FFFFFF" d="M93.997,12.853v8.484c0,2.367,1.211,4.273,4.273,4.273l4.27,0.027
	v4.305l-4.27-0.031c-5.246,0-8.547-3.055-8.547-8.574v-8.484h-4.273V8.548h4.273V0.001h4.274v8.547h8.542v4.274L93.997,12.853z"/>
<path fill-rule="evenodd" clip-rule="evenodd" fill="#FFFFFF" d="M-0.003,12.853L4.27,8.548v12.82c0,1.613,0.371,2.699,0.863,3.254
	c0.489,0.555,1.473,1.016,2.637,1.016c5.617,0,11.238,0.004,16.856,0c3.308,0,5.32-2.398,5.32-6.426c0-4.047-2.156-6.39-5.477-6.39
	h-7.382V8.548h8.14c4.719,0,8.992,3.301,8.992,10.664c0,7.367-4.273,10.719-9.015,10.699H8.168
	c-1.024-0.051-2.375-0.117-4.051-0.371c-2.746-0.809-4.121-3.23-4.121-7.266V12.853z"/>
<polygon fill-rule="evenodd" clip-rule="evenodd" fill="#FFFFFF" points="38.449,17.122 42.722,12.853 42.722,29.942 38.449,29.942 
	"/>
<path fill-rule="evenodd" clip-rule="evenodd" fill="#E21F26" d="M158.086,29.911h-4.273V17.095c0-1.617-0.371-2.699-0.859-3.254
	c-0.492-0.555-1.477-1.019-2.641-1.019l-16.367,0.003c-3.711,0-5.77,2.629-5.77,6.406c0,4,2.348,6.398,5.902,6.406h15.461v4.273
	h-16.066c-5.832-0.633-9.566-3.563-9.566-10.691c0-7.578,3.996-10.672,10.266-10.672h15.742c1.023,0.051,2.375,0.117,4.051,0.371
	c2.746,0.809,4.121,3.23,4.121,7.266V29.911z"/>
<path fill-rule="evenodd" clip-rule="evenodd" fill="#E21F26" d="M196.539,23.384c0,3.805-2.859,6.523-6.285,6.527h-27.895v-4.273
	h27.457c1.582,0,2.449-0.875,2.449-2.137c0-1.309-0.789-2.125-2.375-2.125l-21.176-0.008c-3.434,0-6.355-2.387-6.355-6.309
	c0-3.824,2.938-6.508,6.355-6.512h23.551l4.273,4.274h-27.195c-1.582,0-2.375,0.925-2.375,2.237c0,1.258,0.875,2.031,2.457,2.031
	h20.91C193.746,17.091,196.539,19.572,196.539,23.384z"/>
<path fill-rule="evenodd" clip-rule="evenodd" fill="#E21F26" d="M111.086,12.853v8.484c0,2.367,1.211,4.273,4.273,4.273
	l4.273,0.027v4.305l-4.273-0.031c-5.246,0-8.547-3.055-8.547-8.574v-8.484h-4.273V8.548h4.273V0.001h4.273v8.547h8.547v4.274
	L111.086,12.853z"/>
<polygon fill-rule="evenodd" clip-rule="evenodd" fill="#E21F26" points="38.449,4.274 42.722,0.001 42.722,8.548 38.449,12.822 "/>
<path fill-rule="evenodd" clip-rule="evenodd" fill="#FFFFFF" d="M190.863,34.239h5.672v1.043h-1.902v3.176h-1.867v-3.176h-1.902
	V34.239z M187.172,34.239h1.871v4.219h-1.871V34.239z M178.207,34.239h2.457l0.945,2.566l0.945-2.566h2.449v4.219h-1.527v-3.219
	l-1.184,3.219h-1.379l-1.18-3.219v3.219h-1.527V34.239z M169.336,34.239h2.457l0.949,2.566l0.941-2.566h2.449v4.219h-1.527v-3.219
	l-1.18,3.219h-1.383l-1.18-3.219v3.219h-1.527V34.239z M163.055,36.356c0,0.426,0.113,0.73,0.34,0.918
	c0.227,0.184,0.535,0.277,0.926,0.277c0.398,0,0.711-0.09,0.93-0.273c0.219-0.18,0.332-0.508,0.332-0.98
	c0-0.395-0.117-0.688-0.348-0.871c-0.227-0.18-0.539-0.273-0.934-0.273c-0.375,0-0.676,0.094-0.906,0.281
	C163.168,35.618,163.055,35.927,163.055,36.356z M161.188,36.349c0-0.688,0.273-1.223,0.824-1.605s1.316-0.574,2.293-0.574
	c1.008,0,1.781,0.188,2.328,0.563c0.543,0.379,0.813,0.906,0.813,1.586c0,0.492-0.117,0.895-0.355,1.211s-0.582,0.563-1.031,0.738
	s-1.008,0.262-1.676,0.262c-0.684,0-1.246-0.074-1.695-0.227c-0.445-0.152-0.805-0.391-1.086-0.719
	C161.324,37.255,161.188,36.845,161.188,36.349z M157.977,36.731l1.637,0.348c-0.113,0.32-0.285,0.586-0.52,0.801
	c-0.238,0.215-0.531,0.379-0.883,0.488s-0.797,0.164-1.336,0.164c-0.656,0-1.195-0.066-1.609-0.199s-0.777-0.371-1.078-0.707
	s-0.453-0.762-0.453-1.285c0-0.699,0.266-1.238,0.797-1.609c0.531-0.375,1.285-0.563,2.258-0.563c0.762,0,1.359,0.105,1.793,0.32
	c0.438,0.215,0.762,0.547,0.973,0.988l-1.648,0.258c-0.059-0.129-0.121-0.223-0.184-0.281c-0.102-0.102-0.23-0.176-0.383-0.23
	s-0.32-0.082-0.508-0.082c-0.422,0-0.746,0.121-0.973,0.355c-0.168,0.18-0.254,0.457-0.254,0.832c0,0.469,0.102,0.789,0.305,0.965
	c0.203,0.172,0.488,0.258,0.855,0.258c0.359,0,0.629-0.07,0.813-0.207C157.762,37.204,157.891,37.001,157.977,36.731z
	 M144.973,36.688c-0.23,0.113-0.387,0.211-0.461,0.293c-0.074,0.078-0.113,0.164-0.113,0.254c0,0.141,0.086,0.266,0.262,0.375
	c0.172,0.109,0.398,0.164,0.676,0.164c0.297,0,0.633-0.082,1.008-0.242C145.988,37.337,145.531,37.06,144.973,36.688z
	 M145.57,35.665c0.215-0.082,0.383-0.172,0.5-0.27c0.121-0.094,0.18-0.188,0.18-0.273c0-0.09-0.051-0.168-0.148-0.227
	c-0.098-0.063-0.234-0.098-0.41-0.098c-0.168,0-0.309,0.039-0.414,0.105c-0.109,0.07-0.16,0.152-0.16,0.246
	C145.117,35.267,145.266,35.438,145.57,35.665z M147.496,36.403l1.313,0.207c-0.07,0.168-0.137,0.305-0.199,0.406
	s-0.152,0.219-0.266,0.359l0.629,0.301c0.078,0.035,0.176,0.074,0.297,0.125l-0.902,0.723c-0.164-0.059-0.336-0.129-0.512-0.211
	c-0.18-0.082-0.336-0.152-0.477-0.207c-0.293,0.133-0.582,0.23-0.875,0.293c-0.402,0.082-0.863,0.125-1.375,0.125
	c-0.805,0-1.406-0.117-1.797-0.352c-0.395-0.23-0.59-0.516-0.59-0.848c0-0.242,0.113-0.469,0.348-0.684
	c0.23-0.215,0.605-0.395,1.133-0.539c-0.219-0.188-0.371-0.348-0.453-0.488c-0.082-0.137-0.125-0.277-0.125-0.417
	c0-0.298,0.164-0.548,0.488-0.739c0.328-0.195,0.824-0.289,1.488-0.289c0.68,0,1.18,0.09,1.5,0.273
	c0.316,0.184,0.477,0.406,0.477,0.664c0,0.141-0.051,0.281-0.148,0.414s-0.215,0.238-0.352,0.32s-0.383,0.207-0.734,0.367
	c0.289,0.207,0.598,0.398,0.918,0.574C147.363,36.665,147.438,36.536,147.496,36.403z M132.914,34.239h5v0.898h-3.129v0.672h2.902
	v0.859h-2.902v0.832h3.223v0.957h-5.094V34.239z M127.211,35.947h0.785c0.086,0,0.25-0.017,0.496-0.056
	c0.125-0.02,0.227-0.063,0.305-0.133s0.117-0.152,0.117-0.246c0-0.137-0.063-0.238-0.188-0.313s-0.355-0.109-0.695-0.109h-0.82
	V35.947z M125.336,38.458v-4.219h3.109c0.578,0,1.02,0.035,1.324,0.105c0.305,0.066,0.551,0.195,0.738,0.383
	s0.281,0.414,0.281,0.684c0,0.234-0.074,0.434-0.215,0.605c-0.145,0.168-0.34,0.306-0.59,0.41c-0.16,0.07-0.379,0.125-0.656,0.168
	c0.223,0.051,0.383,0.105,0.488,0.156c0.066,0.035,0.168,0.109,0.297,0.223c0.133,0.113,0.219,0.199,0.262,0.262l0.902,1.223h-2.109
	l-0.996-1.289c-0.129-0.168-0.238-0.277-0.34-0.328c-0.133-0.063-0.285-0.098-0.457-0.098h-0.164v1.715H125.336z M121.168,36.849
	l-0.668-1.516l-0.664,1.516H121.168z M121.559,37.759h-2.125l-0.293,0.699h-1.91l2.273-4.219h2.035l2.27,4.219h-1.953
	L121.559,37.759z M109.914,34.239h1.867v1.477h2.043v-1.477h1.875v4.219h-1.875v-1.707h-2.043v1.707h-1.867V34.239z M102.582,37.06
	l1.777-0.078c0.039,0.203,0.117,0.355,0.234,0.461c0.191,0.172,0.469,0.258,0.824,0.258c0.266,0,0.473-0.043,0.617-0.133
	c0.141-0.086,0.215-0.188,0.215-0.301c0-0.109-0.066-0.207-0.207-0.293c-0.137-0.09-0.453-0.168-0.957-0.246
	c-0.816-0.129-1.402-0.301-1.75-0.512c-0.352-0.215-0.527-0.484-0.527-0.813c0-0.219,0.09-0.426,0.27-0.617s0.449-0.344,0.813-0.453
	s0.855-0.164,1.484-0.164c0.773,0,1.363,0.098,1.77,0.297c0.402,0.203,0.645,0.52,0.723,0.957l-1.762,0.074
	c-0.047-0.191-0.145-0.328-0.297-0.414c-0.148-0.086-0.355-0.129-0.617-0.129c-0.219,0-0.383,0.031-0.492,0.094
	c-0.109,0.066-0.164,0.145-0.164,0.234c0,0.066,0.047,0.129,0.137,0.184c0.086,0.055,0.297,0.106,0.625,0.152
	c0.816,0.125,1.402,0.25,1.754,0.375s0.609,0.281,0.77,0.469c0.16,0.184,0.242,0.391,0.242,0.621c0,0.273-0.105,0.52-0.32,0.75
	c-0.215,0.227-0.516,0.402-0.898,0.52s-0.871,0.176-1.457,0.176c-1.023,0-1.738-0.137-2.133-0.414S102.633,37.489,102.582,37.06z"/>
</svg>
